<svg width="64" height="64" viewBox="0 0 64 64" fill="none" xmlns="http://www.w3.org/2000/svg">
<g clip-path="url(#clip0_1177_45)">
<path d="M58.0775 0.000254117C57.4473 0.000254117 56.7876 0.211946 56.3076 0.691946L55.3083 1.7701L54.8455 1.3861C54.7313 1.26681 54.5941 1.17188 54.4422 1.10703C54.2904 1.04217 54.1269 1.00874 53.9618 1.00874C53.7966 1.00874 53.6332 1.04217 53.4813 1.10703C53.3295 1.17188 53.1923 1.26681 53.0781 1.3861C52.9588 1.5003 52.8639 1.63747 52.799 1.78935C52.7342 1.94122 52.7007 2.10465 52.7007 2.26979C52.7007 2.43493 52.7342 2.59837 52.799 2.75024C52.8639 2.90211 52.9588 3.03928 53.0781 3.15349L53.4621 3.61625L52.8467 4.23164L52.3839 3.84518C52.2697 3.72589 52.1326 3.63096 51.9807 3.56611C51.8288 3.50125 51.6654 3.46782 51.5003 3.46782C51.3351 3.46782 51.1717 3.50125 51.0198 3.56611C50.8679 3.63096 50.7308 3.72589 50.6166 3.84518C50.4965 3.95945 50.4009 4.09692 50.3356 4.24925C50.2703 4.40158 50.2366 4.56559 50.2366 4.73133C50.2366 4.89707 50.2703 5.06109 50.3356 5.21342C50.4009 5.36575 50.4965 5.50322 50.6166 5.61749L51.0006 6.07779L50.5378 6.5381C50.2393 6.83355 50.0249 7.20322 49.9168 7.60905C49.8086 8.01488 49.8105 8.4422 49.9224 8.84702L39.1532 19.6163C36.9304 17.6716 33.5679 15.3849 29.9224 15.3849C28.3052 15.3849 26.6436 15.8772 24.9993 16.9996C21.3513 19.4932 22.0504 23.2716 19.7686 25.4624C17.2086 27.9239 10.2104 25.9399 3.76856 32.3843C-2.67329 38.8236 0.182096 47.7319 8.38394 55.6163C13.3021 60.7313 18.5944 63.7689 23.4609 63.7689C26.3926 63.7689 29.1913 62.6563 31.6159 60.2316C38.0578 53.7898 36.0738 46.7966 38.5378 44.2316C40.7286 41.9547 44.5809 42.7276 47.0769 39.0772C50.7372 33.7283 47.2049 28.0716 44.3839 24.847L55.1532 14.0778C55.9655 14.2846 56.8246 14.0999 57.4621 13.4624L57.9224 12.9996L58.3852 13.3861C58.4912 13.5056 58.6212 13.6015 58.7666 13.6677C58.912 13.7338 59.0697 13.7687 59.2295 13.7701C59.576 13.7678 59.9077 13.6289 60.1526 13.3836C60.2718 13.2694 60.3668 13.1323 60.4316 12.9804C60.4965 12.8285 60.5299 12.6651 60.5299 12.4999C60.5299 12.3348 60.4965 12.1714 60.4316 12.0195C60.3668 11.8676 60.2718 11.7305 60.1526 11.6163L59.7686 11.1535L60.3839 10.5381L60.8467 10.9246C60.9528 11.0441 61.0827 11.14 61.2281 11.2061C61.3736 11.2723 61.5313 11.3072 61.691 11.3086C62.0376 11.3062 62.3692 11.1674 62.6141 10.9221C62.7334 10.8079 62.8283 10.6707 62.8932 10.5189C62.958 10.367 62.9915 10.2035 62.9915 10.0384C62.9915 9.87327 62.958 9.70984 62.8932 9.55796C62.8283 9.40609 62.7334 9.26892 62.6141 9.15472L62.2301 8.69195L63.3083 7.69256C63.5367 7.46601 63.7181 7.19645 63.8419 6.89945C63.9656 6.60244 64.0293 6.28386 64.0293 5.9621C64.0293 5.64034 63.9656 5.32176 63.8419 5.02476C63.7181 4.72775 63.5367 4.45819 63.3083 4.23164L59.7661 0.689485C59.5461 0.466075 59.2829 0.289761 58.9926 0.171273C58.7023 0.0527839 58.391 -0.0054024 58.0775 0.000254117ZM57.9224 2.92456C58.1119 2.92456 58.3162 2.93441 58.4615 3.07718C58.6002 3.22236 58.6776 3.41544 58.6776 3.61625C58.6776 3.81707 58.6002 4.01015 58.4615 4.15533L53.5384 9.07841C53.3954 9.22203 53.202 9.30417 52.9993 9.30733C52.7974 9.30186 52.6053 9.21903 52.4627 9.07595C52.3247 8.93089 52.2477 8.73832 52.2477 8.5381C52.2477 8.33788 52.3247 8.14532 52.4627 8.00025L57.3858 3.07718C57.5286 2.93441 57.7353 2.92456 57.9224 2.92456ZM60.3839 5.3861C60.5735 5.3861 60.7778 5.39349 60.923 5.53872C61.0623 5.68361 61.1401 5.8768 61.1401 6.07779C61.1401 6.27879 61.0623 6.47197 60.923 6.61687L55.9999 11.5399C55.8564 11.6827 55.6633 11.7647 55.4609 11.7689C55.2593 11.7641 55.0672 11.6821 54.9242 11.5399C54.7855 11.3948 54.7081 11.2017 54.7081 11.0009C54.7081 10.8001 54.7855 10.607 54.9242 10.4618L59.8473 5.53872C59.9901 5.39595 60.1969 5.3861 60.3839 5.3861ZM29.9224 18.8433C32.2855 18.8433 34.7815 20.4483 36.6916 22.0753L28.4603 30.3067C28.2781 30.287 28.1107 30.2279 27.9236 30.2279C26.3747 30.2331 24.8908 30.8507 23.7955 31.946C22.7003 33.0412 22.0827 34.5252 22.0775 36.0741C22.0827 37.623 22.7003 39.107 23.7955 40.2022C24.8908 41.2975 26.3747 41.9151 27.9236 41.9203C29.4725 41.9151 30.9565 41.2975 32.0518 40.2022C33.147 39.107 33.7646 37.623 33.7698 36.0741C33.7698 35.887 33.7107 35.7196 33.6935 35.535L41.9987 27.2298C44.1353 29.7061 46.5476 33.6889 44.2313 37.0759C43.4781 38.1738 42.5304 38.5775 40.8467 39.151C39.3649 39.6556 37.5113 40.271 35.9999 41.8439C34.3409 43.5695 33.9716 45.839 33.5384 48.2292C32.9919 51.2298 32.379 54.6218 29.1544 57.844C27.4609 59.5375 25.595 60.3818 23.4609 60.3818C19.7267 60.3818 15.2467 57.807 10.8455 53.2286C10.8213 53.2019 10.7958 53.1765 10.7692 53.1523C6.22763 48.7929 3.65287 44.3326 3.61594 40.6156C3.59133 38.447 4.4381 36.5664 6.15379 34.8458C9.3784 31.6212 12.7704 31.0058 15.7686 30.4618C18.1587 30.0286 20.4307 29.583 22.1538 27.9239C23.7144 26.4273 24.3323 24.6181 24.8467 23.1535C25.4375 21.4747 25.8067 20.6083 26.9242 19.8452C27.8793 19.1929 28.8689 18.8433 29.9224 18.8433ZM13.691 40.0741C13.4889 40.0786 13.2964 40.1615 13.1544 40.3055L11.6159 41.8464C11.4749 41.9904 11.3959 42.1839 11.3959 42.3855C11.3959 42.587 11.4749 42.7806 11.6159 42.9246L21.0756 52.3843C21.3661 52.6723 21.8633 52.6723 22.1538 52.3843L23.6922 50.8458C23.8314 50.7013 23.9091 50.5085 23.9091 50.3079C23.9091 50.1074 23.8314 49.9146 23.6922 49.7701L14.2301 40.3079C14.0881 40.164 13.8956 40.081 13.6935 40.0766L13.691 40.0741Z" fill="#C46A2B"/>
</g>
<defs>
<clipPath id="clip0_1177_45">
<rect width="64" height="64" fill="white"/>
</clipPath>
</defs>
</svg>
